# xmcd
#
# Track frame offsets:
# 150
# 10465
# 23587
# 34738
# 47376
# 59711
# 69920
# 80248
# 94015
# 111302
# 123223
# 136200
#
# Disc length: 2008 seconds
#
# Revision: 0
# Processed by: cddbd v1.5.2PL0 Copyright (c) Steve Scherf et al.
# Submitted via: Axialis_AX_CDPlayer 2.6
#
DISCID=9b07d60c
DTITLE=Cowboy Copas - Songs That Made Him Famous
DYEAR=1900
DGENRE=
TTITLE0=Flat Top
TTITLE1=Signed, Sealed And Delivered
TTITLE2=Sunny Tennessee
TTITLE3=True Love (Is The Greatest Thing)
TTITLE4=Cope's Wildflower
TTITLE5=The Beginning And The End
TTITLE6=Midnight In Heaven
TTITLE7=New Filipino Baby
TTITLE8=An Old Man's Story
TTITLE9=Settin' Flat On Ready
TTITLE10=Tragic Romance
TTITLE11=The Rainbow And The Rose
EXTD=
EXTT0=
EXTT1=
EXTT2=
EXTT3=
EXTT4=
EXTT5=
EXTT6=
EXTT7=
EXTT8=
EXTT9=
EXTT10=
EXTT11=
PLAYORDER=
